<?xml version="1.0" encoding="UTF-8"?>
<svg xmlns="http://www.w3.org/2000/svg" xmlns:xlink="http://www.w3.org/1999/xlink" width="1920" height="1080" viewBox="0 0 1920 1080">
<defs>
<g>
<g id="glyph-0-0">
<path d="M 0.78125 -2.71875 L 0.78125 -1.578125 L 2.484375 -1.578125 L 2.484375 -1.234375 L 0.78125 -1.234375 L 0.78125 0 L 0.359375 0 L 0.359375 -3.046875 L 2.53125 -3.046875 L 2.53125 -2.71875 Z "/>
</g>
<g id="glyph-0-1">
<path d="M 2.28125 -1.171875 C 2.28125 -0.765625 2.1875 -0.457031 2 -0.25 C 1.820312 -0.0507812 1.5625 0.046875 1.21875 0.046875 C 0.875 0.046875 0.613281 -0.0546875 0.4375 -0.265625 C 0.269531 -0.472656 0.1875 -0.773438 0.1875 -1.171875 C 0.1875 -1.984375 0.535156 -2.390625 1.234375 -2.390625 C 1.597656 -2.390625 1.863281 -2.289062 2.03125 -2.09375 C 2.195312 -1.894531 2.28125 -1.585938 2.28125 -1.171875 Z M 1.875 -1.171875 C 1.875 -1.492188 1.820312 -1.726562 1.71875 -1.875 C 1.625 -2.019531 1.46875 -2.09375 1.25 -2.09375 C 1.019531 -2.09375 0.851562 -2.019531 0.75 -1.875 C 0.644531 -1.726562 0.59375 -1.492188 0.59375 -1.171875 C 0.59375 -0.859375 0.640625 -0.625 0.734375 -0.46875 C 0.835938 -0.320312 1 -0.25 1.21875 -0.25 C 1.457031 -0.25 1.625 -0.320312 1.71875 -0.46875 C 1.820312 -0.625 1.875 -0.859375 1.875 -1.171875 Z "/>
</g>
<g id="glyph-0-2">
<path d="M 1.78125 -0.375 C 1.707031 -0.226562 1.609375 -0.117188 1.484375 -0.046875 C 1.367188 0.015625 1.222656 0.046875 1.046875 0.046875 C 0.753906 0.046875 0.535156 -0.0507812 0.390625 -0.25 C 0.253906 -0.457031 0.1875 -0.757812 0.1875 -1.15625 C 0.1875 -1.976562 0.472656 -2.390625 1.046875 -2.390625 C 1.222656 -2.390625 1.367188 -2.351562 1.484375 -2.28125 C 1.609375 -2.21875 1.707031 -2.117188 1.78125 -1.984375 L 1.78125 -3.21875 L 2.171875 -3.21875 L 2.171875 -0.484375 C 2.171875 -0.234375 2.175781 -0.0703125 2.1875 0 L 1.8125 0 C 1.800781 -0.0195312 1.789062 -0.0703125 1.78125 -0.15625 C 1.78125 -0.238281 1.78125 -0.3125 1.78125 -0.375 Z M 0.59375 -1.171875 C 0.59375 -0.847656 0.632812 -0.613281 0.71875 -0.46875 C 0.8125 -0.332031 0.953125 -0.265625 1.140625 -0.265625 C 1.367188 -0.265625 1.53125 -0.335938 1.625 -0.484375 C 1.726562 -0.640625 1.78125 -0.878906 1.78125 -1.203125 C 1.78125 -1.515625 1.726562 -1.738281 1.625 -1.875 C 1.53125 -2.019531 1.375 -2.09375 1.15625 -2.09375 C 0.957031 -2.09375 0.8125 -2.019531 0.71875 -1.875 C 0.632812 -1.738281 0.59375 -1.503906 0.59375 -1.171875 Z "/>
</g>
<g id="glyph-0-3">
</g>
<g id="glyph-0-4">
<path d="M 0.296875 -2.84375 L 0.296875 -3.21875 L 0.6875 -3.21875 L 0.6875 -2.84375 Z M 0.296875 0 L 0.296875 -2.34375 L 0.6875 -2.34375 L 0.6875 0 Z "/>
</g>
<g id="glyph-0-5">
<path d="M 2.0625 -0.640625 C 2.0625 -0.421875 1.976562 -0.25 1.8125 -0.125 C 1.644531 -0.0078125 1.410156 0.046875 1.109375 0.046875 C 0.816406 0.046875 0.585938 0 0.421875 -0.09375 C 0.265625 -0.195312 0.164062 -0.347656 0.125 -0.546875 L 0.46875 -0.625 C 0.5 -0.488281 0.566406 -0.390625 0.671875 -0.328125 C 0.773438 -0.273438 0.921875 -0.25 1.109375 -0.25 C 1.304688 -0.25 1.445312 -0.28125 1.53125 -0.34375 C 1.625 -0.40625 1.671875 -0.5 1.671875 -0.625 C 1.671875 -0.707031 1.640625 -0.773438 1.578125 -0.828125 C 1.515625 -0.890625 1.414062 -0.941406 1.28125 -0.984375 L 1 -1.0625 C 0.769531 -1.113281 0.609375 -1.164062 0.515625 -1.21875 C 0.421875 -1.28125 0.347656 -1.347656 0.296875 -1.421875 C 0.242188 -1.503906 0.21875 -1.601562 0.21875 -1.71875 C 0.21875 -1.9375 0.289062 -2.097656 0.4375 -2.203125 C 0.59375 -2.316406 0.816406 -2.375 1.109375 -2.375 C 1.367188 -2.375 1.570312 -2.328125 1.71875 -2.234375 C 1.875 -2.148438 1.972656 -2.007812 2.015625 -1.8125 L 1.671875 -1.765625 C 1.648438 -1.867188 1.585938 -1.945312 1.484375 -2 C 1.390625 -2.0625 1.265625 -2.09375 1.109375 -2.09375 C 0.929688 -2.09375 0.800781 -2.0625 0.71875 -2 C 0.632812 -1.945312 0.59375 -1.867188 0.59375 -1.765625 C 0.59375 -1.703125 0.609375 -1.644531 0.640625 -1.59375 C 0.679688 -1.550781 0.734375 -1.515625 0.796875 -1.484375 C 0.867188 -1.453125 1.015625 -1.410156 1.234375 -1.359375 C 1.441406 -1.304688 1.585938 -1.257812 1.671875 -1.21875 C 1.765625 -1.175781 1.835938 -1.128906 1.890625 -1.078125 C 1.941406 -1.023438 1.984375 -0.960938 2.015625 -0.890625 C 2.046875 -0.816406 2.0625 -0.734375 2.0625 -0.640625 Z "/>
</g>
<g id="glyph-0-6">
<path d="M 0.3125 0 L 0.3125 -1.796875 C 0.3125 -1.960938 0.304688 -2.144531 0.296875 -2.34375 L 0.65625 -2.34375 C 0.675781 -2.082031 0.6875 -1.921875 0.6875 -1.859375 C 0.75 -2.066406 0.820312 -2.207031 0.90625 -2.28125 C 0.988281 -2.351562 1.101562 -2.390625 1.25 -2.390625 C 1.300781 -2.390625 1.351562 -2.378906 1.40625 -2.359375 L 1.40625 -2.015625 C 1.351562 -2.023438 1.285156 -2.03125 1.203125 -2.03125 C 1.035156 -2.03125 0.910156 -1.957031 0.828125 -1.8125 C 0.742188 -1.675781 0.703125 -1.476562 0.703125 -1.21875 L 0.703125 0 Z "/>
</g>
<g id="glyph-0-7">
<path d="M 1.1875 0.921875 C 0.925781 0.921875 0.71875 0.867188 0.5625 0.765625 C 0.414062 0.671875 0.320312 0.53125 0.28125 0.34375 L 0.671875 0.28125 C 0.703125 0.394531 0.757812 0.476562 0.84375 0.53125 C 0.9375 0.59375 1.054688 0.625 1.203125 0.625 C 1.585938 0.625 1.78125 0.394531 1.78125 -0.0625 L 1.78125 -0.4375 C 1.707031 -0.28125 1.601562 -0.164062 1.46875 -0.09375 C 1.34375 -0.0195312 1.191406 0.015625 1.015625 0.015625 C 0.734375 0.015625 0.523438 -0.078125 0.390625 -0.265625 C 0.253906 -0.460938 0.1875 -0.765625 0.1875 -1.171875 C 0.1875 -1.585938 0.257812 -1.890625 0.40625 -2.078125 C 0.550781 -2.273438 0.769531 -2.375 1.0625 -2.375 C 1.226562 -2.375 1.375 -2.335938 1.5 -2.265625 C 1.625 -2.191406 1.71875 -2.082031 1.78125 -1.9375 C 1.78125 -1.988281 1.78125 -2.066406 1.78125 -2.171875 C 1.789062 -2.273438 1.800781 -2.332031 1.8125 -2.34375 L 2.1875 -2.34375 C 2.175781 -2.269531 2.171875 -2.109375 2.171875 -1.859375 L 2.171875 -0.0625 C 2.171875 0.59375 1.84375 0.921875 1.1875 0.921875 Z M 1.78125 -1.171875 C 1.78125 -1.359375 1.753906 -1.519531 1.703125 -1.65625 C 1.648438 -1.800781 1.578125 -1.910156 1.484375 -1.984375 C 1.390625 -2.054688 1.28125 -2.09375 1.15625 -2.09375 C 0.957031 -2.09375 0.8125 -2.019531 0.71875 -1.875 C 0.632812 -1.726562 0.59375 -1.492188 0.59375 -1.171875 C 0.59375 -0.847656 0.632812 -0.613281 0.71875 -0.46875 C 0.800781 -0.332031 0.945312 -0.265625 1.15625 -0.265625 C 1.28125 -0.265625 1.390625 -0.300781 1.484375 -0.375 C 1.578125 -0.445312 1.648438 -0.550781 1.703125 -0.6875 C 1.753906 -0.820312 1.78125 -0.984375 1.78125 -1.171875 Z "/>
</g>
<g id="glyph-0-8">
<path d="M 0.6875 -1.9375 C 0.769531 -2.09375 0.867188 -2.207031 0.984375 -2.28125 C 1.109375 -2.351562 1.257812 -2.390625 1.4375 -2.390625 C 1.6875 -2.390625 1.875 -2.328125 2 -2.203125 C 2.125 -2.078125 2.1875 -1.863281 2.1875 -1.5625 L 2.1875 0 L 1.78125 0 L 1.78125 -1.484375 C 1.78125 -1.648438 1.765625 -1.769531 1.734375 -1.84375 C 1.710938 -1.925781 1.664062 -1.988281 1.59375 -2.03125 C 1.519531 -2.070312 1.421875 -2.09375 1.296875 -2.09375 C 1.117188 -2.09375 0.972656 -2.023438 0.859375 -1.890625 C 0.753906 -1.765625 0.703125 -1.59375 0.703125 -1.375 L 0.703125 0 L 0.3125 0 L 0.3125 -3.21875 L 0.703125 -3.21875 L 0.703125 -2.375 C 0.703125 -2.289062 0.695312 -2.203125 0.6875 -2.109375 C 0.6875 -2.015625 0.6875 -1.957031 0.6875 -1.9375 Z "/>
</g>
<g id="glyph-0-9">
<path d="M 1.203125 -0.015625 C 1.066406 0.015625 0.9375 0.03125 0.8125 0.03125 C 0.5 0.03125 0.34375 -0.144531 0.34375 -0.5 L 0.34375 -2.0625 L 0.0625 -2.0625 L 0.0625 -2.34375 L 0.359375 -2.34375 L 0.46875 -2.875 L 0.734375 -2.875 L 0.734375 -2.34375 L 1.15625 -2.34375 L 1.15625 -2.0625 L 0.734375 -2.0625 L 0.734375 -0.578125 C 0.734375 -0.460938 0.75 -0.382812 0.78125 -0.34375 C 0.820312 -0.300781 0.882812 -0.28125 0.96875 -0.28125 C 1.019531 -0.28125 1.097656 -0.289062 1.203125 -0.3125 Z "/>
</g>
</g>
</defs>
<g fill="rgb(19.607843%, 86.27451%, 100%)" fill-opacity="1">
<use xlink:href="#glyph-0-0" x="30" y="24.023438"/>
<use xlink:href="#glyph-0-1" x="33" y="24.023438"/>
<use xlink:href="#glyph-0-1" x="35" y="24.023438"/>
<use xlink:href="#glyph-0-2" x="37" y="24.023438"/>
<use xlink:href="#glyph-0-3" x="39" y="24.023438"/>
<use xlink:href="#glyph-0-4" x="40" y="24.023438"/>
<use xlink:href="#glyph-0-5" x="41" y="24.023438"/>
<use xlink:href="#glyph-0-3" x="43" y="24.023438"/>
<use xlink:href="#glyph-0-6" x="44" y="24.023438"/>
<use xlink:href="#glyph-0-4" x="45" y="24.023438"/>
<use xlink:href="#glyph-0-7" x="46" y="24.023438"/>
<use xlink:href="#glyph-0-8" x="48" y="24.023438"/>
<use xlink:href="#glyph-0-9" x="50" y="24.023438"/>
</g>
</svg>
