<?xml version="1.0" encoding="UTF-8"?>
<svg xmlns="http://www.w3.org/2000/svg" xmlns:xlink="http://www.w3.org/1999/xlink" width="1920" height="1080" viewBox="0 0 1920 1080">
<defs>
<g>
<g id="glyph-0-0">
<path d="M 0.625 -1.28125 L 0.625 -1.640625 L 2.046875 -1.640625 L 2.046875 -1.28125 Z "/>
</g>
<g id="glyph-0-1">
<path d="M 0.40625 0 L 0.40625 -0.359375 L 1.28125 -0.359375 L 1.28125 -2.890625 L 0.40625 -2.234375 L 0.40625 -2.6875 L 1.125 -3.234375 L 1.671875 -3.234375 L 1.671875 -0.359375 L 2.390625 -0.359375 L 2.390625 0 Z "/>
</g>
<g id="glyph-0-2">
<path d="M 1.328125 0.046875 C 1.035156 0.046875 0.800781 -0.0351562 0.625 -0.203125 C 0.445312 -0.378906 0.359375 -0.613281 0.359375 -0.90625 L 0.359375 -2.328125 C 0.359375 -2.617188 0.445312 -2.847656 0.625 -3.015625 C 0.800781 -3.191406 1.035156 -3.28125 1.328125 -3.28125 C 1.628906 -3.28125 1.867188 -3.191406 2.046875 -3.015625 C 2.222656 -2.847656 2.3125 -2.617188 2.3125 -2.328125 L 2.3125 -0.90625 C 2.3125 -0.71875 2.269531 -0.550781 2.1875 -0.40625 C 2.101562 -0.257812 1.988281 -0.144531 1.84375 -0.0625 C 1.695312 0.0078125 1.523438 0.046875 1.328125 0.046875 Z M 1.328125 -0.296875 C 1.503906 -0.296875 1.644531 -0.351562 1.75 -0.46875 C 1.863281 -0.582031 1.921875 -0.726562 1.921875 -0.90625 L 1.921875 -2.328125 C 1.921875 -2.503906 1.863281 -2.648438 1.75 -2.765625 C 1.644531 -2.878906 1.503906 -2.9375 1.328125 -2.9375 C 1.148438 -2.9375 1.003906 -2.878906 0.890625 -2.765625 C 0.785156 -2.648438 0.734375 -2.503906 0.734375 -2.328125 L 0.734375 -0.90625 C 0.734375 -0.726562 0.785156 -0.582031 0.890625 -0.46875 C 1.003906 -0.351562 1.148438 -0.296875 1.328125 -0.296875 Z M 1.328125 -1.375 C 1.253906 -1.375 1.191406 -1.394531 1.140625 -1.4375 C 1.085938 -1.488281 1.0625 -1.554688 1.0625 -1.640625 C 1.0625 -1.710938 1.085938 -1.769531 1.140625 -1.8125 C 1.191406 -1.851562 1.253906 -1.875 1.328125 -1.875 C 1.410156 -1.875 1.472656 -1.851562 1.515625 -1.8125 C 1.566406 -1.769531 1.59375 -1.710938 1.59375 -1.640625 C 1.59375 -1.554688 1.566406 -1.488281 1.515625 -1.4375 C 1.472656 -1.394531 1.410156 -1.375 1.328125 -1.375 Z "/>
</g>
<g id="glyph-0-3">
</g>
<g id="glyph-0-4">
<path d="M 1.359375 0.046875 C 1.066406 0.046875 0.832031 -0.0351562 0.65625 -0.203125 C 0.476562 -0.367188 0.390625 -0.597656 0.390625 -0.890625 L 0.390625 -1.546875 C 0.390625 -1.835938 0.476562 -2.066406 0.65625 -2.234375 C 0.832031 -2.398438 1.066406 -2.484375 1.359375 -2.484375 C 1.640625 -2.484375 1.867188 -2.40625 2.046875 -2.25 C 2.222656 -2.101562 2.316406 -1.898438 2.328125 -1.640625 L 1.921875 -1.640625 C 1.910156 -1.796875 1.851562 -1.914062 1.75 -2 C 1.65625 -2.082031 1.523438 -2.125 1.359375 -2.125 C 1.191406 -2.125 1.054688 -2.070312 0.953125 -1.96875 C 0.847656 -1.875 0.796875 -1.738281 0.796875 -1.5625 L 0.796875 -0.890625 C 0.796875 -0.703125 0.847656 -0.554688 0.953125 -0.453125 C 1.054688 -0.359375 1.191406 -0.3125 1.359375 -0.3125 C 1.523438 -0.3125 1.65625 -0.351562 1.75 -0.4375 C 1.851562 -0.519531 1.910156 -0.640625 1.921875 -0.796875 L 2.328125 -0.796875 C 2.316406 -0.535156 2.222656 -0.328125 2.046875 -0.171875 C 1.867188 -0.0234375 1.640625 0.046875 1.359375 0.046875 Z "/>
</g>
<g id="glyph-0-5">
<path d="M 1.328125 0.03125 C 1.035156 0.03125 0.800781 -0.0507812 0.625 -0.21875 C 0.457031 -0.394531 0.375 -0.632812 0.375 -0.9375 L 0.375 -1.5 C 0.375 -1.8125 0.457031 -2.050781 0.625 -2.21875 C 0.800781 -2.382812 1.035156 -2.46875 1.328125 -2.46875 C 1.628906 -2.46875 1.863281 -2.382812 2.03125 -2.21875 C 2.207031 -2.050781 2.296875 -1.8125 2.296875 -1.5 L 2.296875 -0.9375 C 2.296875 -0.632812 2.207031 -0.394531 2.03125 -0.21875 C 1.851562 -0.0507812 1.617188 0.03125 1.328125 0.03125 Z M 1.328125 -0.3125 C 1.503906 -0.3125 1.640625 -0.359375 1.734375 -0.453125 C 1.835938 -0.554688 1.890625 -0.703125 1.890625 -0.890625 L 1.890625 -1.546875 C 1.890625 -1.734375 1.835938 -1.875 1.734375 -1.96875 C 1.640625 -2.070312 1.503906 -2.125 1.328125 -2.125 C 1.160156 -2.125 1.023438 -2.070312 0.921875 -1.96875 C 0.816406 -1.875 0.765625 -1.734375 0.765625 -1.546875 L 0.765625 -0.890625 C 0.765625 -0.703125 0.816406 -0.554688 0.921875 -0.453125 C 1.023438 -0.359375 1.160156 -0.3125 1.328125 -0.3125 Z "/>
</g>
<g id="glyph-0-6">
<path d="M 1.6875 0 C 1.46875 0 1.289062 -0.0625 1.15625 -0.1875 C 1.03125 -0.3125 0.96875 -0.476562 0.96875 -0.6875 L 0.96875 -2.875 L 0.140625 -2.875 L 0.140625 -3.234375 L 1.375 -3.234375 L 1.375 -0.6875 C 1.375 -0.582031 1.398438 -0.5 1.453125 -0.4375 C 1.515625 -0.382812 1.59375 -0.359375 1.6875 -0.359375 L 2.4375 -0.359375 L 2.4375 0 Z "/>
</g>
<g id="glyph-0-7">
<path d="M 0.375 0 L 0.375 -0.359375 L 1.25 -0.359375 L 1.25 -2.078125 L 0.46875 -2.078125 L 0.46875 -2.4375 L 1.640625 -2.4375 L 1.640625 -0.359375 L 2.46875 -0.359375 L 2.46875 0 Z M 1.40625 -2.875 C 1.300781 -2.875 1.222656 -2.898438 1.171875 -2.953125 C 1.117188 -3.003906 1.09375 -3.070312 1.09375 -3.15625 C 1.09375 -3.25 1.117188 -3.320312 1.171875 -3.375 C 1.222656 -3.425781 1.300781 -3.453125 1.40625 -3.453125 C 1.5 -3.453125 1.570312 -3.425781 1.625 -3.375 C 1.6875 -3.320312 1.71875 -3.25 1.71875 -3.15625 C 1.71875 -3.070312 1.6875 -3.003906 1.625 -2.953125 C 1.570312 -2.898438 1.5 -2.875 1.40625 -2.875 Z "/>
</g>
<g id="glyph-0-8">
<path d="M 1.234375 0.03125 C 0.960938 0.03125 0.75 -0.0234375 0.59375 -0.140625 C 0.445312 -0.265625 0.375 -0.441406 0.375 -0.671875 L 0.78125 -0.671875 C 0.78125 -0.554688 0.816406 -0.46875 0.890625 -0.40625 C 0.972656 -0.34375 1.085938 -0.3125 1.234375 -0.3125 L 1.421875 -0.3125 C 1.578125 -0.3125 1.691406 -0.34375 1.765625 -0.40625 C 1.847656 -0.46875 1.890625 -0.5625 1.890625 -0.6875 C 1.890625 -0.894531 1.796875 -1.007812 1.609375 -1.03125 L 0.9375 -1.140625 C 0.769531 -1.160156 0.640625 -1.226562 0.546875 -1.34375 C 0.453125 -1.457031 0.40625 -1.609375 0.40625 -1.796875 C 0.40625 -2.003906 0.476562 -2.164062 0.625 -2.28125 C 0.769531 -2.40625 0.972656 -2.46875 1.234375 -2.46875 L 1.421875 -2.46875 C 1.660156 -2.46875 1.851562 -2.410156 2 -2.296875 C 2.15625 -2.179688 2.238281 -2.03125 2.25 -1.84375 L 1.84375 -1.84375 C 1.84375 -1.925781 1.800781 -1.992188 1.71875 -2.046875 C 1.644531 -2.109375 1.546875 -2.140625 1.421875 -2.140625 L 1.234375 -2.140625 C 1.097656 -2.140625 0.988281 -2.109375 0.90625 -2.046875 C 0.832031 -1.984375 0.796875 -1.898438 0.796875 -1.796875 C 0.796875 -1.617188 0.875 -1.519531 1.03125 -1.5 L 1.65625 -1.40625 C 2.070312 -1.351562 2.28125 -1.113281 2.28125 -0.6875 C 2.28125 -0.457031 2.207031 -0.28125 2.0625 -0.15625 C 1.914062 -0.03125 1.703125 0.03125 1.421875 0.03125 Z "/>
</g>
<g id="glyph-0-9">
<path d="M 0.40625 0 L 0.40625 -2.4375 L 0.8125 -2.4375 L 0.8125 -1.96875 C 0.832031 -2.132812 0.898438 -2.257812 1.015625 -2.34375 C 1.128906 -2.4375 1.273438 -2.484375 1.453125 -2.484375 C 1.703125 -2.484375 1.898438 -2.40625 2.046875 -2.25 C 2.191406 -2.101562 2.265625 -1.898438 2.265625 -1.640625 L 2.265625 0 L 1.859375 0 L 1.859375 -1.578125 C 1.859375 -1.753906 1.8125 -1.890625 1.71875 -1.984375 C 1.625 -2.085938 1.5 -2.140625 1.34375 -2.140625 C 1.175781 -2.140625 1.046875 -2.085938 0.953125 -1.984375 C 0.859375 -1.890625 0.8125 -1.742188 0.8125 -1.546875 L 0.8125 0 Z "/>
</g>
</g>
</defs>
<g fill="rgb(100%, 23.529412%, 23.529412%)" fill-opacity="1">
<use xlink:href="#glyph-0-0" x="30" y="24.533203"/>
<use xlink:href="#glyph-0-1" x="33" y="24.533203"/>
<use xlink:href="#glyph-0-2" x="36" y="24.533203"/>
<use xlink:href="#glyph-0-3" x="39" y="24.533203"/>
<use xlink:href="#glyph-0-3" x="42" y="24.533203"/>
<use xlink:href="#glyph-0-4" x="45" y="24.533203"/>
<use xlink:href="#glyph-0-5" x="48" y="24.533203"/>
<use xlink:href="#glyph-0-6" x="51" y="24.533203"/>
<use xlink:href="#glyph-0-6" x="54" y="24.533203"/>
<use xlink:href="#glyph-0-7" x="57" y="24.533203"/>
<use xlink:href="#glyph-0-8" x="60" y="24.533203"/>
<use xlink:href="#glyph-0-7" x="63" y="24.533203"/>
<use xlink:href="#glyph-0-5" x="66" y="24.533203"/>
<use xlink:href="#glyph-0-9" x="69" y="24.533203"/>
</g>
</svg>
