<?xml version="1.0" encoding="UTF-8"?>
<svg xmlns="http://www.w3.org/2000/svg" xmlns:xlink="http://www.w3.org/1999/xlink" width="1920" height="1080" viewBox="0 0 1920 1080">
<defs>
<g>
<g id="glyph-0-0">
<path d="M 6.5625 0 L 5.5625 0 L 4.515625 -3.890625 C 4.441406 -4.128906 4.335938 -4.5625 4.203125 -5.1875 C 4.128906 -4.851562 4.066406 -4.570312 4.015625 -4.34375 C 3.960938 -4.125 3.566406 -2.675781 2.828125 0 L 1.84375 0 L 0.046875 -6.109375 L 0.90625 -6.109375 L 2 -2.234375 C 2.132812 -1.742188 2.253906 -1.242188 2.359375 -0.734375 C 2.429688 -1.046875 2.507812 -1.390625 2.59375 -1.765625 C 2.6875 -2.140625 3.09375 -3.585938 3.8125 -6.109375 L 4.609375 -6.109375 L 5.671875 -2.3125 C 5.828125 -1.6875 5.953125 -1.160156 6.046875 -0.734375 L 6.09375 -0.875 C 6.164062 -1.207031 6.222656 -1.476562 6.265625 -1.6875 C 6.316406 -1.90625 6.726562 -3.378906 7.5 -6.109375 L 8.359375 -6.109375 Z "/>
</g>
<g id="glyph-0-1">
<path d="M 1.375 -3.890625 C 1.539062 -4.203125 1.738281 -4.425781 1.96875 -4.5625 C 2.207031 -4.707031 2.507812 -4.78125 2.875 -4.78125 C 3.382812 -4.78125 3.757812 -4.65625 4 -4.40625 C 4.238281 -4.15625 4.359375 -3.726562 4.359375 -3.125 L 4.359375 0 L 3.578125 0 L 3.578125 -2.984375 C 3.578125 -3.304688 3.546875 -3.546875 3.484375 -3.703125 C 3.429688 -3.867188 3.332031 -3.988281 3.1875 -4.0625 C 3.050781 -4.144531 2.859375 -4.1875 2.609375 -4.1875 C 2.242188 -4.1875 1.945312 -4.054688 1.71875 -3.796875 C 1.5 -3.546875 1.390625 -3.203125 1.390625 -2.765625 L 1.390625 0 L 0.609375 0 L 0.609375 -6.4375 L 1.390625 -6.4375 L 1.390625 -4.765625 C 1.390625 -4.585938 1.382812 -4.40625 1.375 -4.21875 C 1.375 -4.03125 1.367188 -3.921875 1.359375 -3.890625 Z "/>
</g>
<g id="glyph-0-2">
<path d="M 1.796875 0.09375 C 1.328125 0.09375 0.972656 -0.03125 0.734375 -0.28125 C 0.492188 -0.53125 0.375 -0.875 0.375 -1.3125 C 0.375 -1.800781 0.535156 -2.175781 0.859375 -2.4375 C 1.179688 -2.695312 1.695312 -2.832031 2.40625 -2.84375 L 3.453125 -2.859375 L 3.453125 -3.125 C 3.453125 -3.5 3.367188 -3.769531 3.203125 -3.9375 C 3.046875 -4.101562 2.796875 -4.1875 2.453125 -4.1875 C 2.097656 -4.1875 1.84375 -4.125 1.6875 -4 C 1.53125 -3.882812 1.4375 -3.695312 1.40625 -3.4375 L 0.59375 -3.515625 C 0.71875 -4.359375 1.34375 -4.78125 2.46875 -4.78125 C 3.0625 -4.78125 3.503906 -4.644531 3.796875 -4.375 C 4.097656 -4.101562 4.25 -3.710938 4.25 -3.203125 L 4.25 -1.1875 C 4.25 -0.945312 4.28125 -0.769531 4.34375 -0.65625 C 4.40625 -0.539062 4.519531 -0.484375 4.6875 -0.484375 C 4.757812 -0.484375 4.84375 -0.492188 4.9375 -0.515625 L 4.9375 -0.03125 C 4.75 0.0195312 4.550781 0.046875 4.34375 0.046875 C 4.050781 0.046875 3.835938 -0.0234375 3.703125 -0.171875 C 3.578125 -0.328125 3.503906 -0.570312 3.484375 -0.90625 L 3.453125 -0.90625 C 3.253906 -0.539062 3.019531 -0.28125 2.75 -0.125 C 2.488281 0.0195312 2.171875 0.09375 1.796875 0.09375 Z M 1.96875 -0.5 C 2.257812 -0.5 2.515625 -0.5625 2.734375 -0.6875 C 2.960938 -0.820312 3.140625 -1.003906 3.265625 -1.234375 C 3.390625 -1.460938 3.453125 -1.695312 3.453125 -1.9375 L 3.453125 -2.3125 L 2.609375 -2.296875 C 2.234375 -2.296875 1.953125 -2.257812 1.765625 -2.1875 C 1.578125 -2.113281 1.429688 -2.003906 1.328125 -1.859375 C 1.234375 -1.722656 1.1875 -1.535156 1.1875 -1.296875 C 1.1875 -1.046875 1.253906 -0.847656 1.390625 -0.703125 C 1.523438 -0.566406 1.71875 -0.5 1.96875 -0.5 Z "/>
</g>
<g id="glyph-0-3">
<path d="M 2.40625 -0.03125 C 2.144531 0.03125 1.878906 0.0625 1.609375 0.0625 C 0.984375 0.0625 0.671875 -0.289062 0.671875 -1 L 0.671875 -4.125 L 0.140625 -4.125 L 0.140625 -4.703125 L 0.703125 -4.703125 L 0.9375 -5.75 L 1.453125 -5.75 L 1.453125 -4.703125 L 2.328125 -4.703125 L 2.328125 -4.125 L 1.453125 -4.125 L 1.453125 -1.15625 C 1.453125 -0.9375 1.488281 -0.78125 1.5625 -0.6875 C 1.644531 -0.59375 1.773438 -0.546875 1.953125 -0.546875 C 2.054688 -0.546875 2.207031 -0.566406 2.40625 -0.609375 Z "/>
</g>
<g id="glyph-0-4">
</g>
<g id="glyph-0-5">
<path d="M 1.203125 -2.1875 C 1.203125 -1.644531 1.3125 -1.226562 1.53125 -0.9375 C 1.75 -0.644531 2.078125 -0.5 2.515625 -0.5 C 2.847656 -0.5 3.113281 -0.566406 3.3125 -0.703125 C 3.519531 -0.835938 3.660156 -1.007812 3.734375 -1.21875 L 4.421875 -1.03125 C 4.140625 -0.28125 3.503906 0.09375 2.515625 0.09375 C 1.816406 0.09375 1.285156 -0.113281 0.921875 -0.53125 C 0.554688 -0.945312 0.375 -1.5625 0.375 -2.375 C 0.375 -3.15625 0.554688 -3.75 0.921875 -4.15625 C 1.285156 -4.570312 1.804688 -4.78125 2.484375 -4.78125 C 3.859375 -4.78125 4.546875 -3.945312 4.546875 -2.28125 L 4.546875 -2.1875 Z M 3.734375 -2.78125 C 3.691406 -3.28125 3.566406 -3.640625 3.359375 -3.859375 C 3.148438 -4.085938 2.851562 -4.203125 2.46875 -4.203125 C 2.082031 -4.203125 1.78125 -4.078125 1.5625 -3.828125 C 1.34375 -3.578125 1.222656 -3.226562 1.203125 -2.78125 Z "/>
</g>
<g id="glyph-0-6">
<path d="M 5.0625 0 L 4.359375 -1.78125 L 1.578125 -1.78125 L 0.875 0 L 0.015625 0 L 2.515625 -6.109375 L 3.453125 -6.109375 L 5.90625 0 Z M 2.96875 -5.484375 L 2.9375 -5.375 C 2.863281 -5.132812 2.753906 -4.828125 2.609375 -4.453125 L 1.828125 -2.4375 L 4.125 -2.4375 L 3.328125 -4.453125 C 3.253906 -4.648438 3.175781 -4.875 3.09375 -5.125 Z "/>
</g>
<g id="glyph-0-7">
<path d="M 0.828125 0 L 0.828125 -6.109375 L 1.65625 -6.109375 L 1.65625 0 Z "/>
</g>
<g id="glyph-0-8">
<path d="M 5.515625 -1.6875 C 5.515625 -1.125 5.296875 -0.6875 4.859375 -0.375 C 4.421875 -0.0625 3.800781 0.09375 3 0.09375 C 1.507812 0.09375 0.644531 -0.425781 0.40625 -1.46875 L 1.203125 -1.625 C 1.296875 -1.257812 1.492188 -0.988281 1.796875 -0.8125 C 2.097656 -0.644531 2.507812 -0.5625 3.03125 -0.5625 C 3.5625 -0.5625 3.972656 -0.648438 4.265625 -0.828125 C 4.554688 -1.015625 4.703125 -1.285156 4.703125 -1.640625 C 4.703125 -1.835938 4.65625 -2 4.5625 -2.125 C 4.46875 -2.25 4.335938 -2.351562 4.171875 -2.4375 C 4.015625 -2.519531 3.820312 -2.585938 3.59375 -2.640625 C 3.363281 -2.691406 3.109375 -2.753906 2.828125 -2.828125 C 2.347656 -2.929688 1.984375 -3.035156 1.734375 -3.140625 C 1.484375 -3.242188 1.285156 -3.363281 1.140625 -3.5 C 0.992188 -3.632812 0.878906 -3.789062 0.796875 -3.96875 C 0.722656 -4.144531 0.6875 -4.347656 0.6875 -4.578125 C 0.6875 -5.097656 0.882812 -5.5 1.28125 -5.78125 C 1.6875 -6.0625 2.265625 -6.203125 3.015625 -6.203125 C 3.703125 -6.203125 4.226562 -6.09375 4.59375 -5.875 C 4.96875 -5.664062 5.226562 -5.304688 5.375 -4.796875 L 4.5625 -4.65625 C 4.46875 -4.976562 4.296875 -5.210938 4.046875 -5.359375 C 3.796875 -5.503906 3.445312 -5.578125 3 -5.578125 C 2.507812 -5.578125 2.132812 -5.492188 1.875 -5.328125 C 1.625 -5.171875 1.5 -4.929688 1.5 -4.609375 C 1.5 -4.421875 1.546875 -4.265625 1.640625 -4.140625 C 1.742188 -4.023438 1.890625 -3.921875 2.078125 -3.828125 C 2.265625 -3.742188 2.640625 -3.640625 3.203125 -3.515625 C 3.390625 -3.472656 3.578125 -3.429688 3.765625 -3.390625 C 3.953125 -3.347656 4.128906 -3.296875 4.296875 -3.234375 C 4.472656 -3.171875 4.632812 -3.09375 4.78125 -3 C 4.925781 -2.914062 5.050781 -2.8125 5.15625 -2.6875 C 5.269531 -2.570312 5.359375 -2.429688 5.421875 -2.265625 C 5.484375 -2.097656 5.515625 -1.90625 5.515625 -1.6875 Z "/>
</g>
<g id="glyph-0-9">
<path d="M 4.125 -1.296875 C 4.125 -0.859375 3.957031 -0.515625 3.625 -0.265625 C 3.289062 -0.0234375 2.820312 0.09375 2.21875 0.09375 C 1.632812 0.09375 1.179688 0 0.859375 -0.1875 C 0.546875 -0.382812 0.34375 -0.691406 0.25 -1.109375 L 0.9375 -1.234375 C 1 -0.984375 1.132812 -0.800781 1.34375 -0.6875 C 1.550781 -0.570312 1.84375 -0.515625 2.21875 -0.515625 C 2.613281 -0.515625 2.898438 -0.570312 3.078125 -0.6875 C 3.265625 -0.8125 3.359375 -0.992188 3.359375 -1.234375 C 3.359375 -1.421875 3.296875 -1.570312 3.171875 -1.6875 C 3.046875 -1.800781 2.84375 -1.894531 2.5625 -1.96875 L 2 -2.125 C 1.550781 -2.238281 1.226562 -2.347656 1.03125 -2.453125 C 0.84375 -2.566406 0.695312 -2.703125 0.59375 -2.859375 C 0.488281 -3.023438 0.4375 -3.222656 0.4375 -3.453125 C 0.4375 -3.878906 0.585938 -4.203125 0.890625 -4.421875 C 1.191406 -4.648438 1.640625 -4.765625 2.234375 -4.765625 C 2.742188 -4.765625 3.148438 -4.671875 3.453125 -4.484375 C 3.765625 -4.304688 3.960938 -4.019531 4.046875 -3.625 L 3.34375 -3.53125 C 3.289062 -3.738281 3.171875 -3.898438 2.984375 -4.015625 C 2.796875 -4.128906 2.546875 -4.1875 2.234375 -4.1875 C 1.878906 -4.1875 1.613281 -4.128906 1.4375 -4.015625 C 1.269531 -3.910156 1.1875 -3.75 1.1875 -3.53125 C 1.1875 -3.394531 1.222656 -3.285156 1.296875 -3.203125 C 1.367188 -3.117188 1.472656 -3.046875 1.609375 -2.984375 C 1.742188 -2.921875 2.03125 -2.835938 2.46875 -2.734375 C 2.882812 -2.628906 3.179688 -2.53125 3.359375 -2.4375 C 3.546875 -2.351562 3.691406 -2.253906 3.796875 -2.140625 C 3.898438 -2.035156 3.976562 -1.910156 4.03125 -1.765625 C 4.09375 -1.628906 4.125 -1.472656 4.125 -1.296875 Z "/>
</g>
</g>
</defs>
<g fill="rgb(94.117647%, 78.431373%, 31.372549%)" fill-opacity="1">
<use xlink:href="#glyph-0-0" x="30" y="28.047852"/>
<use xlink:href="#glyph-0-1" x="38" y="28.047852"/>
<use xlink:href="#glyph-0-2" x="43" y="28.047852"/>
<use xlink:href="#glyph-0-3" x="48" y="28.047852"/>
<use xlink:href="#glyph-0-4" x="50" y="28.047852"/>
<use xlink:href="#glyph-0-3" x="52" y="28.047852"/>
<use xlink:href="#glyph-0-1" x="54" y="28.047852"/>
<use xlink:href="#glyph-0-5" x="59" y="28.047852"/>
<use xlink:href="#glyph-0-4" x="64" y="28.047852"/>
<use xlink:href="#glyph-0-6" x="66" y="28.047852"/>
<use xlink:href="#glyph-0-7" x="72" y="28.047852"/>
<use xlink:href="#glyph-0-4" x="74" y="28.047852"/>
<use xlink:href="#glyph-0-8" x="76" y="28.047852"/>
<use xlink:href="#glyph-0-5" x="82" y="28.047852"/>
<use xlink:href="#glyph-0-5" x="87" y="28.047852"/>
<use xlink:href="#glyph-0-9" x="92" y="28.047852"/>
</g>
</svg>
