<?xml version="1.0" encoding="UTF-8"?>
<svg xmlns="http://www.w3.org/2000/svg" xmlns:xlink="http://www.w3.org/1999/xlink" width="1920" height="1080" viewBox="0 0 1920 1080">
<defs>
<g>
<g id="glyph-0-0">
<path d="M 1.03125 0.546875 L 1.03125 -4.15625 L 2.25 -4.15625 L 2.25 -3.75 L 1.46875 -3.75 L 1.46875 0.15625 L 2.25 0.15625 L 2.25 0.546875 Z "/>
</g>
<g id="glyph-0-1">
<path d="M 1.5 0.046875 C 1.164062 0.046875 0.898438 -0.046875 0.703125 -0.234375 C 0.503906 -0.429688 0.40625 -0.695312 0.40625 -1.03125 L 0.40625 -2.625 C 0.40625 -2.945312 0.503906 -3.207031 0.703125 -3.40625 C 0.898438 -3.601562 1.164062 -3.703125 1.5 -3.703125 C 1.832031 -3.703125 2.097656 -3.601562 2.296875 -3.40625 C 2.492188 -3.207031 2.59375 -2.945312 2.59375 -2.625 L 2.59375 -1.03125 C 2.59375 -0.8125 2.546875 -0.617188 2.453125 -0.453125 C 2.367188 -0.296875 2.242188 -0.171875 2.078125 -0.078125 C 1.910156 0.00390625 1.71875 0.046875 1.5 0.046875 Z M 1.5 -0.328125 C 1.695312 -0.328125 1.859375 -0.390625 1.984375 -0.515625 C 2.109375 -0.648438 2.171875 -0.820312 2.171875 -1.03125 L 2.171875 -2.625 C 2.171875 -2.832031 2.109375 -3 1.984375 -3.125 C 1.859375 -3.25 1.695312 -3.3125 1.5 -3.3125 C 1.300781 -3.3125 1.140625 -3.25 1.015625 -3.125 C 0.890625 -3 0.828125 -2.832031 0.828125 -2.625 L 0.828125 -1.03125 C 0.828125 -0.820312 0.890625 -0.648438 1.015625 -0.515625 C 1.140625 -0.390625 1.300781 -0.328125 1.5 -0.328125 Z M 1.5 -1.546875 C 1.40625 -1.546875 1.332031 -1.570312 1.28125 -1.625 C 1.226562 -1.675781 1.203125 -1.75 1.203125 -1.84375 C 1.203125 -1.925781 1.226562 -1.992188 1.28125 -2.046875 C 1.332031 -2.097656 1.40625 -2.125 1.5 -2.125 C 1.59375 -2.125 1.664062 -2.097656 1.71875 -2.046875 C 1.769531 -1.992188 1.796875 -1.925781 1.796875 -1.84375 C 1.796875 -1.75 1.769531 -1.675781 1.71875 -1.625 C 1.664062 -1.570312 1.59375 -1.546875 1.5 -1.546875 Z "/>
</g>
<g id="glyph-0-2">
<path d="M 0.75 0.546875 L 0.75 0.15625 L 1.53125 0.15625 L 1.53125 -3.75 L 0.75 -3.75 L 0.75 -4.15625 L 1.96875 -4.15625 L 1.96875 0.546875 Z "/>
</g>
</g>
</defs>
<g fill="rgb(54.901961%, 54.901961%, 66.666667%)" fill-opacity="1">
<use xlink:href="#glyph-0-0" x="30" y="25.099609"/>
<use xlink:href="#glyph-0-1" x="33" y="25.099609"/>
<use xlink:href="#glyph-0-2" x="36" y="25.099609"/>
</g>
</svg>
