<?xml version="1.0" encoding="UTF-8"?>
<svg xmlns="http://www.w3.org/2000/svg" xmlns:xlink="http://www.w3.org/1999/xlink" width="1920" height="1080" viewBox="0 0 1920 1080">
<defs>
<g>
<g id="glyph-0-0">
<path d="M 2.75 -0.84375 C 2.75 -0.5625 2.640625 -0.34375 2.421875 -0.1875 C 2.203125 -0.03125 1.894531 0.046875 1.5 0.046875 C 0.75 0.046875 0.316406 -0.210938 0.203125 -0.734375 L 0.609375 -0.8125 C 0.648438 -0.625 0.742188 -0.488281 0.890625 -0.40625 C 1.046875 -0.320312 1.253906 -0.28125 1.515625 -0.28125 C 1.773438 -0.28125 1.976562 -0.328125 2.125 -0.421875 C 2.269531 -0.515625 2.34375 -0.648438 2.34375 -0.828125 C 2.34375 -0.921875 2.316406 -1 2.265625 -1.0625 C 2.222656 -1.125 2.160156 -1.175781 2.078125 -1.21875 C 2.003906 -1.257812 1.910156 -1.289062 1.796875 -1.3125 C 1.679688 -1.34375 1.550781 -1.375 1.40625 -1.40625 C 1.164062 -1.457031 0.984375 -1.507812 0.859375 -1.5625 C 0.734375 -1.625 0.632812 -1.6875 0.5625 -1.75 C 0.488281 -1.8125 0.429688 -1.882812 0.390625 -1.96875 C 0.359375 -2.0625 0.34375 -2.164062 0.34375 -2.28125 C 0.34375 -2.539062 0.441406 -2.738281 0.640625 -2.875 C 0.835938 -3.019531 1.125 -3.09375 1.5 -3.09375 C 1.851562 -3.09375 2.117188 -3.039062 2.296875 -2.9375 C 2.484375 -2.832031 2.613281 -2.648438 2.6875 -2.390625 L 2.28125 -2.328125 C 2.226562 -2.484375 2.140625 -2.597656 2.015625 -2.671875 C 1.890625 -2.742188 1.71875 -2.78125 1.5 -2.78125 C 1.257812 -2.78125 1.070312 -2.738281 0.9375 -2.65625 C 0.8125 -2.582031 0.75 -2.460938 0.75 -2.296875 C 0.75 -2.203125 0.769531 -2.125 0.8125 -2.0625 C 0.863281 -2.007812 0.9375 -1.957031 1.03125 -1.90625 C 1.125 -1.863281 1.3125 -1.8125 1.59375 -1.75 C 1.6875 -1.726562 1.78125 -1.707031 1.875 -1.6875 C 1.96875 -1.664062 2.054688 -1.640625 2.140625 -1.609375 C 2.234375 -1.578125 2.316406 -1.539062 2.390625 -1.5 C 2.460938 -1.457031 2.523438 -1.40625 2.578125 -1.34375 C 2.628906 -1.28125 2.671875 -1.207031 2.703125 -1.125 C 2.734375 -1.050781 2.75 -0.957031 2.75 -0.84375 Z "/>
</g>
<g id="glyph-0-1">
<path d="M 0.59375 -1.1875 C 0.59375 -0.875 0.640625 -0.640625 0.734375 -0.484375 C 0.835938 -0.335938 0.988281 -0.265625 1.1875 -0.265625 C 1.320312 -0.265625 1.4375 -0.300781 1.53125 -0.375 C 1.625 -0.445312 1.679688 -0.5625 1.703125 -0.71875 L 2.109375 -0.703125 C 2.078125 -0.472656 1.976562 -0.289062 1.8125 -0.15625 C 1.65625 -0.0195312 1.453125 0.046875 1.203125 0.046875 C 0.867188 0.046875 0.613281 -0.0546875 0.4375 -0.265625 C 0.269531 -0.472656 0.1875 -0.773438 0.1875 -1.171875 C 0.1875 -1.566406 0.269531 -1.867188 0.4375 -2.078125 C 0.613281 -2.285156 0.863281 -2.390625 1.1875 -2.390625 C 1.425781 -2.390625 1.625 -2.328125 1.78125 -2.203125 C 1.945312 -2.078125 2.050781 -1.90625 2.09375 -1.6875 L 1.6875 -1.65625 C 1.664062 -1.789062 1.613281 -1.894531 1.53125 -1.96875 C 1.445312 -2.039062 1.332031 -2.078125 1.1875 -2.078125 C 0.976562 -2.078125 0.828125 -2.007812 0.734375 -1.875 C 0.640625 -1.738281 0.59375 -1.507812 0.59375 -1.1875 Z "/>
</g>
<g id="glyph-0-2">
<path d="M 2.28125 -1.171875 C 2.28125 -0.765625 2.1875 -0.457031 2 -0.25 C 1.820312 -0.0507812 1.5625 0.046875 1.21875 0.046875 C 0.875 0.046875 0.613281 -0.0546875 0.4375 -0.265625 C 0.269531 -0.472656 0.1875 -0.773438 0.1875 -1.171875 C 0.1875 -1.984375 0.535156 -2.390625 1.234375 -2.390625 C 1.597656 -2.390625 1.863281 -2.289062 2.03125 -2.09375 C 2.195312 -1.894531 2.28125 -1.585938 2.28125 -1.171875 Z M 1.875 -1.171875 C 1.875 -1.492188 1.820312 -1.726562 1.71875 -1.875 C 1.625 -2.019531 1.46875 -2.09375 1.25 -2.09375 C 1.019531 -2.09375 0.851562 -2.019531 0.75 -1.875 C 0.644531 -1.726562 0.59375 -1.492188 0.59375 -1.171875 C 0.59375 -0.859375 0.640625 -0.625 0.734375 -0.46875 C 0.835938 -0.320312 1 -0.25 1.21875 -0.25 C 1.457031 -0.25 1.625 -0.320312 1.71875 -0.46875 C 1.820312 -0.625 1.875 -0.859375 1.875 -1.171875 Z "/>
</g>
<g id="glyph-0-3">
<path d="M 0.3125 0 L 0.3125 -1.796875 C 0.3125 -1.960938 0.304688 -2.144531 0.296875 -2.34375 L 0.65625 -2.34375 C 0.675781 -2.082031 0.6875 -1.921875 0.6875 -1.859375 C 0.75 -2.066406 0.820312 -2.207031 0.90625 -2.28125 C 0.988281 -2.351562 1.101562 -2.390625 1.25 -2.390625 C 1.300781 -2.390625 1.351562 -2.378906 1.40625 -2.359375 L 1.40625 -2.015625 C 1.351562 -2.023438 1.285156 -2.03125 1.203125 -2.03125 C 1.035156 -2.03125 0.910156 -1.957031 0.828125 -1.8125 C 0.742188 -1.675781 0.703125 -1.476562 0.703125 -1.21875 L 0.703125 0 Z "/>
</g>
<g id="glyph-0-4">
<path d="M 0.59375 -1.09375 C 0.59375 -0.820312 0.648438 -0.613281 0.765625 -0.46875 C 0.878906 -0.320312 1.039062 -0.25 1.25 -0.25 C 1.414062 -0.25 1.550781 -0.28125 1.65625 -0.34375 C 1.757812 -0.414062 1.828125 -0.503906 1.859375 -0.609375 L 2.203125 -0.515625 C 2.066406 -0.140625 1.75 0.046875 1.25 0.046875 C 0.90625 0.046875 0.640625 -0.0546875 0.453125 -0.265625 C 0.273438 -0.472656 0.1875 -0.78125 0.1875 -1.1875 C 0.1875 -1.570312 0.273438 -1.867188 0.453125 -2.078125 C 0.640625 -2.285156 0.898438 -2.390625 1.234375 -2.390625 C 1.921875 -2.390625 2.265625 -1.972656 2.265625 -1.140625 L 2.265625 -1.09375 Z M 1.875 -1.390625 C 1.84375 -1.640625 1.773438 -1.816406 1.671875 -1.921875 C 1.566406 -2.035156 1.421875 -2.09375 1.234375 -2.09375 C 1.046875 -2.09375 0.894531 -2.03125 0.78125 -1.90625 C 0.664062 -1.78125 0.609375 -1.609375 0.609375 -1.390625 Z "/>
</g>
</g>
</defs>
<g fill="rgb(54.901961%, 54.901961%, 66.666667%)" fill-opacity="1">
<use xlink:href="#glyph-0-0" x="30" y="24.023438"/>
<use xlink:href="#glyph-0-1" x="33" y="24.023438"/>
<use xlink:href="#glyph-0-2" x="35" y="24.023438"/>
<use xlink:href="#glyph-0-3" x="37" y="24.023438"/>
<use xlink:href="#glyph-0-4" x="38" y="24.023438"/>
</g>
</svg>
