<?xml version="1.0" encoding="UTF-8"?>
<svg xmlns="http://www.w3.org/2000/svg" xmlns:xlink="http://www.w3.org/1999/xlink" width="1920" height="1080" viewBox="0 0 1920 1080">
<defs>
<g>
<g id="glyph-0-0">
<path d="M 0.25 0 L 0.25 -0.3125 C 0.332031 -0.5 0.429688 -0.664062 0.546875 -0.8125 C 0.671875 -0.957031 0.796875 -1.085938 0.921875 -1.203125 C 1.054688 -1.328125 1.1875 -1.4375 1.3125 -1.53125 C 1.445312 -1.632812 1.566406 -1.738281 1.671875 -1.84375 C 1.773438 -1.945312 1.859375 -2.050781 1.921875 -2.15625 C 1.992188 -2.269531 2.03125 -2.394531 2.03125 -2.53125 C 2.03125 -2.71875 1.972656 -2.863281 1.859375 -2.96875 C 1.742188 -3.070312 1.585938 -3.125 1.390625 -3.125 C 1.203125 -3.125 1.046875 -3.070312 0.921875 -2.96875 C 0.804688 -2.875 0.738281 -2.734375 0.71875 -2.546875 L 0.265625 -2.59375 C 0.296875 -2.863281 0.410156 -3.078125 0.609375 -3.234375 C 0.816406 -3.398438 1.078125 -3.484375 1.390625 -3.484375 C 1.742188 -3.484375 2.007812 -3.398438 2.1875 -3.234375 C 2.375 -3.078125 2.46875 -2.847656 2.46875 -2.546875 C 2.46875 -2.410156 2.4375 -2.273438 2.375 -2.140625 C 2.320312 -2.015625 2.234375 -1.882812 2.109375 -1.75 C 1.992188 -1.625 1.765625 -1.421875 1.421875 -1.140625 C 1.234375 -0.984375 1.082031 -0.84375 0.96875 -0.71875 C 0.863281 -0.601562 0.785156 -0.488281 0.734375 -0.375 L 2.53125 -0.375 L 2.53125 0 Z "/>
</g>
<g id="glyph-0-1">
<path d="M 2.578125 -1.125 C 2.578125 -0.757812 2.46875 -0.472656 2.25 -0.265625 C 2.03125 -0.0546875 1.726562 0.046875 1.34375 0.046875 C 1.03125 0.046875 0.773438 -0.0195312 0.578125 -0.15625 C 0.378906 -0.300781 0.253906 -0.503906 0.203125 -0.765625 L 0.640625 -0.828125 C 0.734375 -0.484375 0.972656 -0.3125 1.359375 -0.3125 C 1.597656 -0.3125 1.78125 -0.378906 1.90625 -0.515625 C 2.039062 -0.660156 2.109375 -0.859375 2.109375 -1.109375 C 2.109375 -1.328125 2.039062 -1.503906 1.90625 -1.640625 C 1.78125 -1.773438 1.601562 -1.84375 1.375 -1.84375 C 1.25 -1.84375 1.132812 -1.820312 1.03125 -1.78125 C 0.9375 -1.738281 0.835938 -1.675781 0.734375 -1.59375 L 0.296875 -1.59375 L 0.421875 -3.4375 L 2.375 -3.4375 L 2.375 -3.0625 L 0.8125 -3.0625 L 0.75 -1.96875 C 0.9375 -2.113281 1.171875 -2.1875 1.453125 -2.1875 C 1.796875 -2.1875 2.066406 -2.085938 2.265625 -1.890625 C 2.472656 -1.691406 2.578125 -1.4375 2.578125 -1.125 Z "/>
</g>
<g id="glyph-0-2">
<path d="M 2.5625 -1.125 C 2.5625 -0.757812 2.460938 -0.472656 2.265625 -0.265625 C 2.066406 -0.0546875 1.796875 0.046875 1.453125 0.046875 C 1.066406 0.046875 0.769531 -0.09375 0.5625 -0.375 C 0.351562 -0.664062 0.25 -1.085938 0.25 -1.640625 C 0.25 -2.234375 0.351562 -2.6875 0.5625 -3 C 0.78125 -3.320312 1.085938 -3.484375 1.484375 -3.484375 C 2.003906 -3.484375 2.332031 -3.253906 2.46875 -2.796875 L 2.046875 -2.71875 C 1.960938 -3 1.773438 -3.140625 1.484375 -3.140625 C 1.234375 -3.140625 1.035156 -3.019531 0.890625 -2.78125 C 0.753906 -2.550781 0.6875 -2.210938 0.6875 -1.765625 C 0.769531 -1.921875 0.882812 -2.035156 1.03125 -2.109375 C 1.175781 -2.179688 1.34375 -2.21875 1.53125 -2.21875 C 1.84375 -2.21875 2.09375 -2.117188 2.28125 -1.921875 C 2.46875 -1.722656 2.5625 -1.457031 2.5625 -1.125 Z M 2.109375 -1.109375 C 2.109375 -1.359375 2.046875 -1.550781 1.921875 -1.6875 C 1.804688 -1.820312 1.640625 -1.890625 1.421875 -1.890625 C 1.210938 -1.890625 1.046875 -1.828125 0.921875 -1.703125 C 0.796875 -1.585938 0.734375 -1.425781 0.734375 -1.21875 C 0.734375 -0.945312 0.796875 -0.726562 0.921875 -0.5625 C 1.054688 -0.394531 1.226562 -0.3125 1.4375 -0.3125 C 1.644531 -0.3125 1.804688 -0.378906 1.921875 -0.515625 C 2.046875 -0.660156 2.109375 -0.859375 2.109375 -1.109375 Z "/>
</g>
</g>
</defs>
<g fill="rgb(50.980392%, 31.372549%, 100%)" fill-opacity="1">
<use xlink:href="#glyph-0-0" x="30" y="24.526367"/>
<use xlink:href="#glyph-0-1" x="33" y="24.526367"/>
<use xlink:href="#glyph-0-2" x="36" y="24.526367"/>
</g>
</svg>
