<?xml version="1.0" encoding="UTF-8"?>
<svg xmlns="http://www.w3.org/2000/svg" xmlns:xlink="http://www.w3.org/1999/xlink" width="1920" height="1080" viewBox="0 0 1920 1080">
<defs>
<g>
<g id="glyph-0-0">
<path d="M 0.28125 -6.625 L 0.140625 -4.65625 L 0.4375 -4.65625 C 1 -5.953125 1.109375 -6.203125 1.96875 -6.203125 L 2.65625 -6.203125 L 2.65625 -1.0625 C 2.65625 -0.484375 2.296875 -0.390625 1.671875 -0.375 L 1.671875 0 L 4.578125 0 L 4.578125 -0.375 C 3.9375 -0.390625 3.578125 -0.484375 3.578125 -1.0625 L 3.578125 -6.203125 L 4.296875 -6.203125 C 5.15625 -6.203125 5.25 -5.953125 5.8125 -4.65625 L 6.109375 -4.65625 L 5.96875 -6.625 Z "/>
</g>
<g id="glyph-0-1">
<path d="M 1.90625 -7.1875 L 1.671875 -7.1875 L 0.34375 -6.703125 L 0.34375 -6.515625 L 1.03125 -6.1875 L 1.03125 -0.875 C 1.03125 -0.4375 0.734375 -0.390625 0.296875 -0.328125 L 0.296875 0 L 2.640625 0 L 2.640625 -0.328125 C 2.21875 -0.390625 1.90625 -0.4375 1.90625 -0.875 L 1.90625 -3.890625 C 2.28125 -4.1875 2.796875 -4.390625 3.28125 -4.390625 C 3.890625 -4.390625 4.15625 -4.15625 4.15625 -3.484375 L 4.15625 -0.875 C 4.15625 -0.4375 3.84375 -0.390625 3.4375 -0.328125 L 3.4375 0 L 5.765625 0 L 5.765625 -0.328125 C 5.34375 -0.390625 5.03125 -0.4375 5.03125 -0.875 L 5.03125 -3.546875 C 5.03125 -4.65625 4.53125 -5.09375 3.703125 -5.09375 C 2.921875 -5.09375 2.375 -4.625 1.90625 -4.171875 Z "/>
</g>
<g id="glyph-0-2">
<path d="M 2.640625 -5.09375 C 1.34375 -5.09375 0.375 -3.984375 0.375 -2.34375 C 0.375 -0.984375 1.1875 0.09375 2.5625 0.09375 C 3.625 0.09375 4.328125 -0.515625 4.546875 -1.34375 L 4.390625 -1.4375 C 4.046875 -0.96875 3.59375 -0.625 2.890625 -0.625 C 1.828125 -0.625 1.15625 -1.46875 1.15625 -2.703125 L 4.546875 -2.703125 L 4.546875 -2.984375 C 4.546875 -4.234375 3.890625 -5.09375 2.640625 -5.09375 Z M 2.5 -4.640625 C 3.28125 -4.640625 3.671875 -4.0625 3.671875 -3.15625 L 1.203125 -3.15625 C 1.28125 -3.9375 1.75 -4.640625 2.5 -4.640625 Z "/>
</g>
<g id="glyph-0-3">
</g>
<g id="glyph-0-4">
<path d="M 0.40625 -3.171875 C 0.40625 -1.25 1.640625 0.09375 3.640625 0.09375 C 4.546875 0.09375 5.296875 -0.15625 5.90625 -0.578125 L 5.90625 -2.125 C 5.90625 -2.6875 6.15625 -2.78125 6.75 -2.8125 L 6.75 -3.171875 L 4.09375 -3.171875 L 4.09375 -2.8125 C 4.703125 -2.78125 5.015625 -2.6875 5.015625 -2.125 L 5.015625 -0.796875 C 4.6875 -0.484375 4.3125 -0.390625 3.71875 -0.390625 C 2.1875 -0.390625 1.421875 -1.71875 1.421875 -3.4375 C 1.421875 -4.96875 2.140625 -6.234375 3.65625 -6.234375 C 4.515625 -6.234375 5.203125 -5.78125 5.453125 -4.6875 L 5.796875 -4.6875 L 5.796875 -6.125 C 5.359375 -6.46875 4.703125 -6.71875 3.703125 -6.71875 C 1.890625 -6.71875 0.40625 -5.375 0.40625 -3.171875 Z "/>
</g>
<g id="glyph-0-5">
<path d="M 2.0625 -0.5625 C 1.578125 -0.5625 1.3125 -0.875 1.3125 -1.40625 C 1.3125 -1.765625 1.53125 -2.03125 1.890625 -2.171875 L 3.234375 -2.6875 L 3.234375 -0.984375 C 2.828125 -0.703125 2.515625 -0.5625 2.0625 -0.5625 Z M 4.109375 -3.515625 C 4.109375 -4.546875 3.5625 -5.09375 2.46875 -5.09375 C 1.4375 -5.09375 0.671875 -4.640625 0.671875 -3.875 C 0.671875 -3.640625 0.75 -3.484375 0.875 -3.359375 L 1.578125 -3.453125 C 1.53125 -3.640625 1.515625 -3.78125 1.515625 -3.9375 C 1.515625 -4.421875 1.78125 -4.640625 2.296875 -4.640625 C 3.03125 -4.640625 3.234375 -4.140625 3.234375 -3.578125 L 3.234375 -3.109375 L 1.734375 -2.578125 C 1.125 -2.359375 0.421875 -2.0625 0.421875 -1.1875 C 0.421875 -0.484375 0.828125 0.09375 1.6875 0.09375 C 2.375 0.09375 2.921875 -0.375 3.25 -0.765625 C 3.34375 -0.25 3.578125 0.09375 4.0625 0.09375 C 4.390625 0.09375 4.6875 -0.03125 5 -0.359375 L 4.953125 -0.578125 C 4.8125 -0.546875 4.59375 -0.53125 4.515625 -0.53125 C 4.234375 -0.53125 4.078125 -0.75 4.078125 -1.171875 C 4.078125 -1.5625 4.109375 -3.203125 4.109375 -3.515625 Z "/>
</g>
<g id="glyph-0-6">
<path d="M 8.703125 0 L 8.703125 -0.328125 C 8.296875 -0.390625 7.984375 -0.4375 7.984375 -0.875 L 7.984375 -3.546875 C 7.984375 -4.625 7.546875 -5.09375 6.734375 -5.09375 C 5.96875 -5.09375 5.390625 -4.59375 4.921875 -4.140625 C 4.78125 -4.796875 4.375 -5.09375 3.734375 -5.09375 C 2.96875 -5.09375 2.4375 -4.625 1.96875 -4.171875 L 1.96875 -5.09375 L 1.734375 -5.09375 L 0.421875 -4.625 L 0.421875 -4.421875 L 1.109375 -4.09375 L 1.109375 -0.875 C 1.109375 -0.4375 0.796875 -0.390625 0.375 -0.328125 L 0.375 0 L 2.703125 0 L 2.703125 -0.328125 C 2.28125 -0.390625 1.96875 -0.4375 1.96875 -0.875 L 1.96875 -3.890625 C 2.328125 -4.1875 2.8125 -4.390625 3.296875 -4.390625 C 3.890625 -4.390625 4.109375 -4.15625 4.109375 -3.484375 L 4.109375 -0.875 C 4.109375 -0.4375 3.796875 -0.390625 3.375 -0.328125 L 3.375 0 L 5.703125 0 L 5.703125 -0.328125 C 5.296875 -0.390625 4.984375 -0.4375 4.984375 -0.875 L 4.984375 -3.890625 C 5.34375 -4.1875 5.8125 -4.390625 6.296875 -4.390625 C 6.890625 -4.390625 7.109375 -4.15625 7.109375 -3.484375 L 7.109375 -0.875 C 7.109375 -0.4375 6.796875 -0.390625 6.375 -0.328125 L 6.375 0 Z "/>
</g>
</g>
</defs>
<g fill="rgb(94.117647%, 78.431373%, 31.372549%)" fill-opacity="1">
<use xlink:href="#glyph-0-0" x="30" y="30.020508"/>
<use xlink:href="#glyph-0-1" x="36" y="30.020508"/>
<use xlink:href="#glyph-0-2" x="42" y="30.020508"/>
<use xlink:href="#glyph-0-3" x="47" y="30.020508"/>
<use xlink:href="#glyph-0-4" x="49" y="30.020508"/>
<use xlink:href="#glyph-0-5" x="56" y="30.020508"/>
<use xlink:href="#glyph-0-6" x="61" y="30.020508"/>
<use xlink:href="#glyph-0-2" x="70" y="30.020508"/>
</g>
</svg>
